<mxfile host="app.diagrams.net" modified="2023-05-03T09:21:40.482Z" agent="Mozilla/5.0 (Windows NT 10.0; Win64; x64) AppleWebKit/537.36 (KHTML, like Gecko) Chrome/112.0.0.0 Safari/537.36" etag="7Ydz6uCwacGJPEA-51uE" version="21.2.6" type="google">
  <diagram id="C5RBs43oDa-KdzZeNtuy" name="Page-1">
    <mxGraphModel grid="1" page="1" gridSize="10" guides="1" tooltips="1" connect="1" arrows="1" fold="1" pageScale="1" pageWidth="1100" pageHeight="600" math="0" shadow="0">
      <root>
        <mxCell id="WIyWlLk6GJQsqaUBKTNV-0" />
        <mxCell id="WIyWlLk6GJQsqaUBKTNV-1" parent="WIyWlLk6GJQsqaUBKTNV-0" />
        <mxCell id="NYwsJ8CKdofHsmyWGumM-2" value="" style="edgeStyle=orthogonalEdgeStyle;rounded=0;orthogonalLoop=1;jettySize=auto;html=1;strokeColor=#000000;strokeWidth=3;" edge="1" parent="WIyWlLk6GJQsqaUBKTNV-1" source="NYwsJ8CKdofHsmyWGumM-0" target="NYwsJ8CKdofHsmyWGumM-1">
          <mxGeometry relative="1" as="geometry" />
        </mxCell>
        <mxCell id="NYwsJ8CKdofHsmyWGumM-0" value="Start" style="ellipse;whiteSpace=wrap;html=1;fillColor=#ffe6cc;strokeColor=#d79b00;" vertex="1" parent="WIyWlLk6GJQsqaUBKTNV-1">
          <mxGeometry x="30" y="220" width="120" height="80" as="geometry" />
        </mxCell>
        <mxCell id="NYwsJ8CKdofHsmyWGumM-4" value="" style="edgeStyle=orthogonalEdgeStyle;rounded=0;orthogonalLoop=1;jettySize=auto;html=1;strokeColor=#000000;strokeWidth=3;" edge="1" parent="WIyWlLk6GJQsqaUBKTNV-1" source="NYwsJ8CKdofHsmyWGumM-1" target="NYwsJ8CKdofHsmyWGumM-3">
          <mxGeometry relative="1" as="geometry" />
        </mxCell>
        <mxCell id="NYwsJ8CKdofHsmyWGumM-1" value="Input&lt;br&gt;angka" style="shape=parallelogram;perimeter=parallelogramPerimeter;whiteSpace=wrap;html=1;fixedSize=1;fillColor=#ffe6cc;strokeColor=#d79b00;" vertex="1" parent="WIyWlLk6GJQsqaUBKTNV-1">
          <mxGeometry x="230" y="230" width="120" height="60" as="geometry" />
        </mxCell>
        <mxCell id="NYwsJ8CKdofHsmyWGumM-6" value="" style="edgeStyle=orthogonalEdgeStyle;rounded=0;orthogonalLoop=1;jettySize=auto;html=1;strokeColor=#000000;strokeWidth=3;" edge="1" parent="WIyWlLk6GJQsqaUBKTNV-1" source="NYwsJ8CKdofHsmyWGumM-3" target="NYwsJ8CKdofHsmyWGumM-5">
          <mxGeometry relative="1" as="geometry" />
        </mxCell>
        <mxCell id="NYwsJ8CKdofHsmyWGumM-10" value="" style="edgeStyle=orthogonalEdgeStyle;rounded=0;orthogonalLoop=1;jettySize=auto;html=1;strokeColor=#000000;strokeWidth=3;" edge="1" parent="WIyWlLk6GJQsqaUBKTNV-1" source="NYwsJ8CKdofHsmyWGumM-3" target="NYwsJ8CKdofHsmyWGumM-9">
          <mxGeometry relative="1" as="geometry" />
        </mxCell>
        <mxCell id="NYwsJ8CKdofHsmyWGumM-3" value="Jika typeof angka === number" style="rhombus;whiteSpace=wrap;html=1;fillColor=#ffe6cc;strokeColor=#d79b00;" vertex="1" parent="WIyWlLk6GJQsqaUBKTNV-1">
          <mxGeometry x="430" y="200" width="150" height="120" as="geometry" />
        </mxCell>
        <mxCell id="NYwsJ8CKdofHsmyWGumM-8" value="" style="edgeStyle=orthogonalEdgeStyle;rounded=0;orthogonalLoop=1;jettySize=auto;html=1;strokeColor=#000000;strokeWidth=3;" edge="1" parent="WIyWlLk6GJQsqaUBKTNV-1" source="NYwsJ8CKdofHsmyWGumM-5" target="NYwsJ8CKdofHsmyWGumM-7">
          <mxGeometry relative="1" as="geometry" />
        </mxCell>
        <mxCell id="NYwsJ8CKdofHsmyWGumM-12" value="" style="edgeStyle=orthogonalEdgeStyle;rounded=0;orthogonalLoop=1;jettySize=auto;html=1;strokeColor=#000000;strokeWidth=3;" edge="1" parent="WIyWlLk6GJQsqaUBKTNV-1" source="NYwsJ8CKdofHsmyWGumM-5" target="NYwsJ8CKdofHsmyWGumM-11">
          <mxGeometry relative="1" as="geometry" />
        </mxCell>
        <mxCell id="NYwsJ8CKdofHsmyWGumM-5" value="angka &amp;lt; Number.MAX_SAFE_INTEGER" style="rhombus;whiteSpace=wrap;html=1;fillColor=#ffe6cc;strokeColor=#d79b00;" vertex="1" parent="WIyWlLk6GJQsqaUBKTNV-1">
          <mxGeometry x="670" y="200" width="200" height="120" as="geometry" />
        </mxCell>
        <mxCell id="NYwsJ8CKdofHsmyWGumM-17" style="edgeStyle=orthogonalEdgeStyle;rounded=0;orthogonalLoop=1;jettySize=auto;html=1;exitX=1;exitY=0.5;exitDx=0;exitDy=0;strokeColor=#000000;strokeWidth=3;" edge="1" parent="WIyWlLk6GJQsqaUBKTNV-1" source="NYwsJ8CKdofHsmyWGumM-7">
          <mxGeometry relative="1" as="geometry">
            <mxPoint x="1090" y="260" as="targetPoint" />
            <Array as="points">
              <mxPoint x="1090" y="260" />
              <mxPoint x="1090" y="260" />
            </Array>
          </mxGeometry>
        </mxCell>
        <mxCell id="NYwsJ8CKdofHsmyWGumM-7" value="const hasil = angka.toString().split(0)" style="whiteSpace=wrap;html=1;fillColor=#ffe6cc;strokeColor=#d79b00;" vertex="1" parent="WIyWlLk6GJQsqaUBKTNV-1">
          <mxGeometry x="920" y="225" width="140" height="70" as="geometry" />
        </mxCell>
        <mxCell id="NYwsJ8CKdofHsmyWGumM-9" value="Output&lt;br&gt;Parameter&amp;nbsp; (angka) harus bertipe number" style="shape=parallelogram;perimeter=parallelogramPerimeter;whiteSpace=wrap;html=1;fixedSize=1;fillColor=#ffe6cc;strokeColor=#d79b00;" vertex="1" parent="WIyWlLk6GJQsqaUBKTNV-1">
          <mxGeometry x="427.5" y="430" width="155" height="70" as="geometry" />
        </mxCell>
        <mxCell id="NYwsJ8CKdofHsmyWGumM-11" value="Parameter pertama (angka) tidak boleh lebih dari 9007199254740991" style="shape=parallelogram;perimeter=parallelogramPerimeter;whiteSpace=wrap;html=1;fixedSize=1;fillColor=#ffe6cc;strokeColor=#d79b00;" vertex="1" parent="WIyWlLk6GJQsqaUBKTNV-1">
          <mxGeometry x="630" y="430" width="280" height="60" as="geometry" />
        </mxCell>
        <mxCell id="NYwsJ8CKdofHsmyWGumM-14" value="" style="endArrow=classic;html=1;rounded=0;exitX=0.5;exitY=1;exitDx=0;exitDy=0;strokeColor=#000000;strokeWidth=3;entryX=0.5;entryY=1;entryDx=0;entryDy=0;" edge="1" parent="WIyWlLk6GJQsqaUBKTNV-1" source="NYwsJ8CKdofHsmyWGumM-9" target="NYwsJ8CKdofHsmyWGumM-1">
          <mxGeometry width="50" height="50" relative="1" as="geometry">
            <mxPoint x="480" y="600" as="sourcePoint" />
            <mxPoint x="80" y="600" as="targetPoint" />
            <Array as="points">
              <mxPoint x="505" y="600" />
              <mxPoint x="290" y="600" />
            </Array>
          </mxGeometry>
        </mxCell>
        <mxCell id="NYwsJ8CKdofHsmyWGumM-19" value="&lt;b&gt;True&lt;/b&gt;" style="text;html=1;strokeColor=none;fillColor=none;align=center;verticalAlign=middle;whiteSpace=wrap;rounded=0;" vertex="1" parent="WIyWlLk6GJQsqaUBKTNV-1">
          <mxGeometry x="860" y="230" width="60" height="30" as="geometry" />
        </mxCell>
        <mxCell id="NYwsJ8CKdofHsmyWGumM-22" value="&lt;b&gt;True&lt;/b&gt;" style="text;html=1;strokeColor=none;fillColor=none;align=center;verticalAlign=middle;whiteSpace=wrap;rounded=0;" vertex="1" parent="WIyWlLk6GJQsqaUBKTNV-1">
          <mxGeometry x="590" y="230" width="60" height="30" as="geometry" />
        </mxCell>
        <mxCell id="NYwsJ8CKdofHsmyWGumM-23" value="&lt;b&gt;False&lt;/b&gt;" style="text;html=1;strokeColor=none;fillColor=none;align=center;verticalAlign=middle;whiteSpace=wrap;rounded=0;" vertex="1" parent="WIyWlLk6GJQsqaUBKTNV-1">
          <mxGeometry x="500" y="350" width="60" height="30" as="geometry" />
        </mxCell>
        <mxCell id="NYwsJ8CKdofHsmyWGumM-24" value="&lt;b&gt;False&lt;/b&gt;" style="text;html=1;strokeColor=none;fillColor=none;align=center;verticalAlign=middle;whiteSpace=wrap;rounded=0;" vertex="1" parent="WIyWlLk6GJQsqaUBKTNV-1">
          <mxGeometry x="760" y="350" width="60" height="30" as="geometry" />
        </mxCell>
        <mxCell id="-GpP-5Mx9IGncNdej844-0" value="" style="edgeStyle=orthogonalEdgeStyle;rounded=0;orthogonalLoop=1;jettySize=auto;html=1;strokeColor=#000000;strokeWidth=3;" edge="1" parent="WIyWlLk6GJQsqaUBKTNV-1" source="-GpP-5Mx9IGncNdej844-1" target="-GpP-5Mx9IGncNdej844-3">
          <mxGeometry relative="1" as="geometry" />
        </mxCell>
        <mxCell id="-GpP-5Mx9IGncNdej844-1" value="hasil = angka&amp;nbsp;&lt;br&gt;&lt;div&gt;.map((item) =&amp;gt; item.split(&quot;&quot;).sort().join(&quot;&quot;));&lt;/div&gt;&lt;div&gt;&amp;nbsp; &amp;nbsp; &amp;nbsp; &amp;nbsp;&amp;nbsp;&lt;/div&gt;" style="rounded=0;whiteSpace=wrap;html=1;fillColor=#ffe6cc;strokeColor=#d79b00;" vertex="1" parent="WIyWlLk6GJQsqaUBKTNV-1">
          <mxGeometry x="1090" y="220" width="160" height="80" as="geometry" />
        </mxCell>
        <mxCell id="-GpP-5Mx9IGncNdej844-2" value="" style="edgeStyle=orthogonalEdgeStyle;rounded=0;orthogonalLoop=1;jettySize=auto;html=1;strokeColor=#000000;strokeWidth=3;" edge="1" parent="WIyWlLk6GJQsqaUBKTNV-1" source="-GpP-5Mx9IGncNdej844-3" target="-GpP-5Mx9IGncNdej844-5">
          <mxGeometry relative="1" as="geometry" />
        </mxCell>
        <mxCell id="-GpP-5Mx9IGncNdej844-3" value="hasil = angka.join();" style="whiteSpace=wrap;html=1;fillColor=#ffe6cc;strokeColor=#d79b00;rounded=0;" vertex="1" parent="WIyWlLk6GJQsqaUBKTNV-1">
          <mxGeometry x="1320" y="222.5" width="130" height="75" as="geometry" />
        </mxCell>
        <mxCell id="-GpP-5Mx9IGncNdej844-4" value="" style="edgeStyle=orthogonalEdgeStyle;rounded=0;orthogonalLoop=1;jettySize=auto;html=1;strokeColor=#000000;strokeWidth=3;" edge="1" parent="WIyWlLk6GJQsqaUBKTNV-1" source="-GpP-5Mx9IGncNdej844-5" target="-GpP-5Mx9IGncNdej844-6">
          <mxGeometry relative="1" as="geometry" />
        </mxCell>
        <mxCell id="-GpP-5Mx9IGncNdej844-5" value="Output&amp;nbsp;&lt;br&gt;hasil" style="shape=parallelogram;perimeter=parallelogramPerimeter;whiteSpace=wrap;html=1;fixedSize=1;fillColor=#ffe6cc;strokeColor=#d79b00;rounded=0;" vertex="1" parent="WIyWlLk6GJQsqaUBKTNV-1">
          <mxGeometry x="1510" y="230" width="120" height="60" as="geometry" />
        </mxCell>
        <mxCell id="-GpP-5Mx9IGncNdej844-6" value="end" style="ellipse;whiteSpace=wrap;html=1;fillColor=#ffe6cc;strokeColor=#d79b00;rounded=0;" vertex="1" parent="WIyWlLk6GJQsqaUBKTNV-1">
          <mxGeometry x="1720" y="220" width="80" height="80" as="geometry" />
        </mxCell>
        <mxCell id="-GpP-5Mx9IGncNdej844-11" value="" style="endArrow=none;html=1;rounded=0;entryX=0.5;entryY=1;entryDx=0;entryDy=0;strokeWidth=3;" edge="1" parent="WIyWlLk6GJQsqaUBKTNV-1" target="NYwsJ8CKdofHsmyWGumM-11">
          <mxGeometry width="50" height="50" relative="1" as="geometry">
            <mxPoint x="500" y="600" as="sourcePoint" />
            <mxPoint x="795" y="510" as="targetPoint" />
            <Array as="points">
              <mxPoint x="770" y="600" />
            </Array>
          </mxGeometry>
        </mxCell>
      </root>
    </mxGraphModel>
  </diagram>
</mxfile>
